# xmcd CD database file
#
# Track frame offsets:
#	150
#	13155
#	24296
#	33690
#	46006
#	58547
#	69947
#	82695
#	91052
#	103828
#	117411
#	128555
#	141390
#	154525
#	168470
#
# Disc length: 2382 seconds
#
# Revision: 0
# Processed by: cddbd v1.5.2PL0 Copyright (c) Steve Scherf et al.
# Submitted via: CdAid (MTCDDB.DLL V2003.12.21)
#
DISCID=b5094c0f
DTITLE=Beto Lemos - Dentro de Dois Corações
DYEAR=2000
DGENRE=Country
TTITLE0=Final de Semana
TTITLE1=O Baton Dela
TTITLE2=Pega Pega
TTITLE3=Casa de Santa
TTITLE4=Amor em Pensamento
TTITLE5=Pra que Sonhar
TTITLE6=O Dono Do Seu Coração
TTITLE7=Terra Natal
TTITLE8=Ela É Demais
TTITLE9=Cão e Gato
TTITLE10=Festa do Peão
TTITLE11=Sem Querer Te Entreguei
TTITLE12=Baby
TTITLE13=Dentro de Dois Corações
TTITLE14=Xenhenhem
EXTD=ID3G:   2 YEAR: 2000
EXTT0=
EXTT1=
EXTT2=
EXTT3=
EXTT4=
EXTT5=
EXTT6=
EXTT7=
EXTT8=
EXTT9=
EXTT10=
EXTT11=
EXTT12=
EXTT13=
EXTT14=
PLAYORDER=
